<svg width="50" height="50" viewBox="0 0 50 50" fill="none" xmlns="http://www.w3.org/2000/svg">
<path d="M4.6875 45.3125H35.9375" stroke="white" stroke-width="3" stroke-miterlimit="10" stroke-linecap="round" stroke-linejoin="round"/>
<path d="M6.25 17.1875V26.875C6.25 34.375 12.5 40.625 20.3125 40.625C28.125 40.625 34.375 34.375 34.375 26.875V17.1875H6.25Z" stroke="white" stroke-width="3" stroke-miterlimit="10" stroke-linecap="round" stroke-linejoin="round"/>
<path d="M39.0625 32.8125C36.4062 32.8125 34.375 30.7813 34.375 28.125V23.4375C34.375 20.9375 36.4062 18.75 39.0625 18.75C41.5625 18.75 43.75 20.7812 43.75 23.4375V28.125C43.75 30.7813 41.7188 32.8125 39.0625 32.8125Z" stroke="white" stroke-width="3" stroke-miterlimit="10" stroke-linecap="round" stroke-linejoin="round"/>
<path d="M20.3125 3.125C18.4375 5.9375 18.4375 9.6875 20.3125 12.5" stroke="white" stroke-width="3" stroke-miterlimit="10" stroke-linecap="round" stroke-linejoin="round"/>
<path d="M14.0625 3.125C12.1875 5.9375 12.1875 9.6875 14.0625 12.5" stroke="white" stroke-width="3" stroke-miterlimit="10" stroke-linecap="round" stroke-linejoin="round"/>
<path d="M26.5625 3.125C24.6875 5.9375 24.6875 9.6875 26.5625 12.5" stroke="white" stroke-width="3" stroke-miterlimit="10" stroke-linecap="round" stroke-linejoin="round"/>
</svg>
