<svg width="85" height="79" viewBox="0 0 85 79" fill="none" xmlns="http://www.w3.org/2000/svg">
<path d="M82.035 44.0578C74.2705 40.2609 60.3369 48.2844 49.131 54.7043C44.6123 57.3053 40.347 59.7548 38.4156 60.1461C36.7073 60.496 35.2966 60.2728 34.1338 59.4738C32.555 58.3964 31.756 56.4815 31.3785 55.305C32.4807 54.9159 33.6376 54.7039 34.8061 54.6768C45.5794 54.2717 52.3354 50.3674 52.4401 44.4821C52.4842 42.3274 51.8395 40.6632 50.5527 39.5225C48.5111 37.7453 45.7254 38.1448 45.4334 38.1807C45.3342 38.1944 35.8228 39.5583 30.0449 38.8089L29.5269 38.74C23.7407 37.985 18.7536 37.3403 13.6342 44.5868C9.4434 50.5631 2.5055 49.6538 2.21068 49.629C2.01201 49.5995 1.80932 49.613 1.61632 49.6686C1.42333 49.7243 1.24453 49.8207 1.09202 49.9514C0.94087 50.0831 0.819096 50.2451 0.734603 50.4269C0.65011 50.6087 0.604788 50.8062 0.601577 51.0067V74.1514C0.599991 74.4949 0.726844 74.8267 0.957251 75.0816C1.18766 75.3365 1.50499 75.496 1.84698 75.529L30.5684 78.7335C31.5297 78.8444 32.4966 78.9005 33.4643 78.9015C38.5863 78.8991 43.597 77.4066 47.8856 74.606L82.4814 51.9573C83.1584 51.511 83.7053 50.8936 84.0668 50.1678C84.4282 49.442 84.5914 48.6335 84.5396 47.8243C84.4947 47.0305 84.2389 46.2631 83.7986 45.601C83.3584 44.939 82.7496 44.4063 82.035 44.0578ZM80.9329 49.6263L46.3399 72.275C41.7719 75.2646 36.3059 76.5709 30.8798 75.9699L3.39823 72.906V52.4945H3.42853C6.22518 52.4945 12.0031 51.7534 15.9074 46.2262C20.0404 40.3519 23.6691 40.8258 29.1549 41.5422L29.6729 41.6138C35.8421 42.4101 45.4113 41.0407 45.8439 40.9828C45.8577 40.9828 47.6486 40.7459 48.7122 41.6689C49.3542 42.22 49.6628 43.165 49.649 44.4518C49.5636 49.516 41.5484 51.6294 34.7207 51.8911C32.7962 51.9234 30.9035 52.3876 29.1825 53.2495C29.1296 53.2742 29.0781 53.3018 29.0282 53.3322C26.609 54.6354 25.7411 56.3823 25.686 56.4953C25.6059 56.6577 25.5586 56.8343 25.5468 57.0151C25.535 57.1958 25.5589 57.3771 25.6173 57.5486C25.6756 57.72 25.7672 57.8783 25.8868 58.0143C26.0064 58.1504 26.1516 58.2615 26.3142 58.3413C26.6443 58.5076 27.0268 58.5363 27.3779 58.4211C27.7291 58.3059 28.0203 58.0563 28.1878 57.7269C28.3967 57.3808 28.6516 57.0648 28.9455 56.7873C29.5187 58.3413 30.5987 60.4271 32.5275 61.7827C34.3322 63.0281 36.5006 63.4194 38.9777 62.9014C41.3417 62.4275 45.3838 60.091 50.5197 57.1373C60.0173 51.6817 74.356 43.4433 80.8062 46.5761C81.0741 46.7054 81.3017 46.9053 81.4644 47.1544C81.627 47.4035 81.7186 47.6923 81.7292 47.9896C81.7525 48.3076 81.6923 48.6262 81.5546 48.9137C81.4168 49.2013 81.2063 49.4479 80.9439 49.629L80.9329 49.6263Z" fill="#9BDB3F"/>
<path d="M26.1854 22.4995C27.4149 22.505 28.6183 22.1454 29.6432 21.4663C30.6681 20.7872 31.4684 19.8192 31.9427 18.6848C32.417 17.5505 32.5439 16.3009 32.3074 15.0944C32.0709 13.8879 31.4816 12.7787 30.6142 11.9074C29.7467 11.0361 28.6402 10.4419 27.4347 10.2C26.2292 9.95811 24.9791 10.0795 23.8427 10.5487C22.7063 11.0179 21.7347 11.8139 21.051 12.8358C20.3674 13.8577 20.0025 15.0596 20.0024 16.289C20.0017 17.9316 20.652 19.5076 21.8109 20.6716C22.9698 21.8357 24.5428 22.493 26.1854 22.4995ZM26.1854 12.8752C26.8618 12.8692 27.5248 13.0643 28.0902 13.4357C28.6556 13.8072 29.0978 14.3382 29.3609 14.9615C29.6239 15.5847 29.6959 16.2721 29.5676 16.9363C29.4393 17.6005 29.1166 18.2116 28.6404 18.6921C28.1642 19.1725 27.556 19.5007 26.8929 19.6349C26.2299 19.7691 25.5419 19.7033 24.9164 19.4458C24.2908 19.1883 23.7558 18.7508 23.3794 18.1888C23.0029 17.6267 22.8019 16.9655 22.8018 16.289C22.7989 15.388 23.1535 14.5225 23.7878 13.8826C24.4221 13.2426 25.2843 12.8803 26.1854 12.8752Z" fill="#9BDB3F"/>
<path d="M27.8403 32.5153C30.9338 32.5221 33.9631 31.6326 36.562 29.9545C39.1608 28.2763 41.218 25.8814 42.4848 23.0591H53.4399C53.6248 23.0584 53.8076 23.021 53.9779 22.9491C54.1481 22.8772 54.3024 22.7722 54.4319 22.6403L58.2369 18.8076L62.0476 22.6403C62.1777 22.7721 62.3325 22.8769 62.5032 22.9488C62.6739 23.0206 62.857 23.0581 63.0422 23.0591H64.6789C64.8637 23.0584 65.0465 23.021 65.2168 22.9491C65.3871 22.8772 65.5414 22.7722 65.6708 22.6403L69.4869 18.8076L73.3085 22.6403C73.4384 22.7706 73.5932 22.8736 73.7635 22.9432C73.9339 23.0127 74.1165 23.0475 74.3005 23.0453H78.6924C78.993 23.0448 79.2855 22.9482 79.5274 22.7698C79.7692 22.5914 79.9478 22.3404 80.037 22.0534L82.0236 15.5894C82.2445 14.8833 82.295 14.1349 82.171 13.4055C82.047 12.6761 81.7519 11.9864 81.31 11.3931C80.8788 10.7998 80.3125 10.3176 79.658 9.98658C79.0036 9.6555 78.2797 9.48499 77.5462 9.48913H42.4848C41.2521 6.77213 39.2894 4.45072 36.8151 2.78354C34.3408 1.11635 31.4523 0.16887 28.4712 0.04665C26.3467 -0.0333974 24.2277 0.314387 22.2402 1.06934C20.2527 1.82429 18.4373 2.97102 16.9016 4.44138C15.3148 5.90869 14.0381 7.67911 13.1468 9.64808C12.2556 11.617 11.768 13.7446 11.7128 15.9052C11.6576 18.0658 12.0359 20.2155 12.8253 22.2274C13.6148 24.2393 14.7994 26.0727 16.3093 27.6191C17.8008 29.172 19.5915 30.4065 21.5734 31.248C23.5553 32.0895 25.6871 32.5206 27.8403 32.5153ZM18.8056 6.49685C21.2444 4.16666 24.4837 2.86007 27.8568 2.84605C28.0221 2.84605 28.1902 2.84605 28.3583 2.84605C30.959 2.95551 33.4712 3.82214 35.5862 5.33952C37.7012 6.85691 39.3271 8.95897 40.264 11.3875C40.3628 11.6521 40.5406 11.8799 40.7732 12.0401C41.0059 12.2003 41.2821 12.2851 41.5645 12.283H77.5049C77.8014 12.2822 78.094 12.3515 78.3587 12.485C78.6235 12.6186 78.853 12.8128 79.0286 13.0518C79.2098 13.2953 79.3309 13.5783 79.3822 13.8775C79.4334 14.1767 79.4133 14.4838 79.3234 14.7738L77.6454 20.2431H74.8736L70.4651 15.8209C70.2028 15.568 69.8511 15.4293 69.4869 15.4351C69.3021 15.4358 69.1193 15.4732 68.949 15.5451C68.7787 15.617 68.6244 15.722 68.495 15.8539L64.103 20.2624H63.6401L59.2481 15.8539C58.9803 15.599 58.6246 15.4569 58.2549 15.4569C57.8851 15.4569 57.5295 15.599 57.2616 15.8539L52.8696 20.2624H41.5728C41.2904 20.2604 41.0141 20.3452 40.7815 20.5054C40.5489 20.6655 40.3711 20.8933 40.2723 21.1579C39.4823 23.2507 38.1763 25.11 36.4756 26.5631C34.7748 28.0162 32.7345 29.0159 30.544 29.4694C28.3535 29.923 26.0839 29.8156 23.946 29.1574C21.8081 28.4991 19.8711 27.3113 18.3151 25.7042C17.0645 24.4223 16.0833 22.903 15.4294 21.2358C14.7755 19.5686 14.4622 17.7873 14.5079 15.997C14.5536 14.2068 14.9574 12.4438 15.6956 10.8121C16.4337 9.18047 17.4912 7.71319 18.8056 6.49685Z" fill="#9BDB3F"/>
</svg>
