<svg width="42" height="48" viewBox="0 0 42 48" fill="none" xmlns="http://www.w3.org/2000/svg">
<g clip-path="url(#clip0_113_14231)">
<path d="M19.3933 0C20.4501 0 21.507 0 22.5629 0C22.6685 0.023459 22.7731 0.0534866 22.8797 0.0685004C27.2687 0.697203 30.784 2.80007 33.4275 6.37523C37.1999 11.4771 37.3961 18.6396 33.9331 23.9667C32.3698 26.3698 30.8532 28.803 29.302 31.2146C29.074 31.5684 29.1338 31.6697 29.5403 31.7354C31.4129 32.0385 33.25 32.4983 35.0469 33.1091C36.7476 33.6872 38.3688 34.4238 39.7994 35.5386C42.7289 37.8207 42.7326 41.1969 39.82 43.479C38.7688 44.3029 37.6138 44.9334 36.3869 45.4345C32.6323 46.9669 28.6825 47.5806 24.6738 47.8752C22.3807 48.0441 20.0829 48.031 17.7842 47.9015C15.4864 47.7729 13.2083 47.5055 10.9563 47.0391C8.37631 46.5052 5.85707 45.777 3.55369 44.4502C1.87919 43.4855 0.485948 42.2629 0.000976562 40.2698V38.6774C0.245798 38.0036 0.486882 37.3327 0.94382 36.7594C2.01375 35.4147 3.43502 34.5664 4.96189 33.8777C7.34282 32.8042 9.85458 32.1736 12.4177 31.7344C12.8251 31.665 12.8821 31.5655 12.6551 31.2127C11.0703 28.7495 9.49389 26.2807 7.92778 23.8053C6.53454 21.603 5.75242 19.1867 5.57861 16.5884C5.42069 14.2209 5.7683 11.9153 6.68124 9.71955C8.39967 5.58607 11.331 2.67151 15.4761 0.99091C16.7395 0.478564 18.0655 0.241159 19.3933 0ZM33.5023 15.407C33.4855 15.1226 33.4883 14.5887 33.4182 14.0651C32.9267 10.382 31.2428 7.36614 28.2087 5.22949C24.3897 2.54014 20.2446 2.12351 15.9602 3.95238C11.2955 5.94358 8.13335 10.8493 8.49124 16.3509C8.62954 18.4688 9.23599 20.4291 10.3648 22.2129C13.7736 27.5991 17.202 32.974 20.6239 38.3527C20.8594 38.723 21.0958 38.723 21.3332 38.3527C24.6607 33.1176 27.9686 27.8693 31.3232 22.652C32.7024 20.5079 33.4649 18.1995 33.5023 15.4079V15.407ZM21.3154 45.0845C22.6143 44.9991 24.2449 45.0104 25.8708 44.8499C28.6302 44.5778 31.3475 44.1152 33.9798 43.2247C35.531 42.7001 37.0429 42.0789 38.2838 40.9595C39.335 40.0117 39.3416 39.109 38.323 38.1284C37.654 37.4838 36.8616 37.0202 36.029 36.628C33.5724 35.4701 30.9522 34.9117 28.2938 34.4679C27.5387 34.3422 27.1566 34.5495 26.7669 35.1876C25.3466 37.5147 23.8608 39.8034 22.4003 42.1062C22.2583 42.3295 22.1172 42.5547 21.9116 42.7283C21.1827 43.3438 20.2333 43.1534 19.6531 42.245C18.0757 39.7762 16.504 37.3036 14.9491 34.8207C14.7211 34.4566 14.4576 34.3421 14.0623 34.4172C13.7119 34.4838 13.3568 34.5289 13.0055 34.5871C10.5619 34.9924 8.16419 35.5639 5.91314 36.6374C4.99739 37.0737 4.11903 37.5786 3.43128 38.3471C2.68747 39.1794 2.69402 39.8757 3.42568 40.7089C3.70507 41.027 4.03212 41.2907 4.38067 41.5262C5.86922 42.5331 7.53345 43.1327 9.24159 43.6188C13.0812 44.711 17.0189 45.0442 21.3173 45.0836L21.3154 45.0845Z" fill="white"/>
<path d="M28.0055 15.5778C28.0008 19.4954 24.8574 22.6145 20.9234 22.6061C17.0511 22.5976 13.945 19.4391 13.9497 15.5158C13.9544 11.5982 17.0978 8.47906 21.0318 8.4875C24.9041 8.49595 28.0101 11.6545 28.0055 15.5778ZM16.8437 15.5459C16.8418 17.8082 18.6957 19.6775 20.9645 19.699C23.2062 19.7206 25.0704 17.8646 25.1106 15.5712C25.1498 13.321 23.2202 11.3758 20.9664 11.3945C18.7004 11.4133 16.8446 13.2816 16.8437 15.5459Z" fill="white"/>
</g>
<defs>
<clipPath id="clip0_113_14231">
<rect width="42" height="48" fill="white"/>
</clipPath>
</defs>
</svg>
