<svg width="523" height="67" viewBox="0 0 523 67" fill="none" xmlns="http://www.w3.org/2000/svg">
<path d="M291.633 47.2505L289.391 49.5252L275.262 35.6299L261.184 49.5252L258.941 47.2505L273.02 33.4541L258.941 19.6331L261.184 17.3584L275.262 31.2289L289.391 17.3584L291.633 19.5836L277.555 33.4541L291.633 47.2505Z" fill="#231A16"/>
<path d="M12.5603 19.5589V41.2424C12.4256 43.1472 12.8868 45.0469 13.881 46.6818C14.4465 47.2609 15.1306 47.7128 15.8871 48.0071C16.6437 48.3014 17.455 48.4312 18.2665 48.3878C19.1136 48.3878 19.5372 48.734 19.5372 49.3027C19.5372 49.8713 18.5156 50.3164 16.4724 50.3164L14.8029 50.1927L11.9125 49.9208C10.3178 49.7724 9.24633 49.6983 8.74798 49.6983C6.88569 49.7401 5.02879 49.9136 3.19138 50.2175C2.76686 50.3205 2.33252 50.3785 1.89567 50.3905C1.34748 50.3905 1.07339 50.1433 1.07339 49.6488C1.0716 49.4835 1.11759 49.3211 1.2059 49.1809C1.29422 49.0406 1.42118 48.9285 1.57174 48.8576L2.89237 48.1901C3.60364 47.7303 4.1184 47.0258 4.33758 46.2121C4.73924 45.1618 4.94198 44.047 4.9356 42.9237V41.3166V28.3856C5.04267 26.9803 4.82977 25.5692 4.31266 24.2566C4.07336 23.8742 3.73339 23.5638 3.32941 23.3591C2.92543 23.1543 2.47277 23.0628 2.02026 23.0945H1.12323C0.94545 23.1161 0.765092 23.1009 0.593542 23.0498C0.421991 22.9988 0.262973 22.913 0.126527 22.7978C0.0332587 22.6321 -0.00998913 22.4433 0.0019412 22.2539C0.0019412 21.5863 0.799301 21.0918 2.49369 20.7704C5.68448 20.1411 8.71175 18.8705 11.3892 17.037C11.5793 16.8948 11.8019 16.8013 12.0371 16.765C12.3859 16.765 12.5853 17.037 12.5853 17.5068V17.8529C12.5853 18.0754 12.5853 18.6441 12.5853 19.5589" fill="#231A16"/>
<path d="M65.2339 34.1466V41.8854C65.1882 43.0213 65.2802 44.1586 65.5079 45.2727C65.7457 45.9503 66.179 46.5435 66.7538 46.9787C67.7745 47.7607 69.0057 48.2253 70.2921 48.3138C71.0895 48.3138 71.4881 48.7342 71.4881 49.2287C71.4881 49.7232 70.5662 50.3907 68.7472 50.3907C68.1882 50.3759 67.6306 50.3263 67.0777 50.2424L64.586 49.9457C63.701 49.8407 62.811 49.7829 61.9198 49.7726C59.9498 49.7338 57.9806 49.8828 56.0393 50.2177C55.5316 50.3271 55.014 50.3851 54.4944 50.3907C54.3793 50.4073 54.2618 50.397 54.1514 50.3606C54.041 50.3243 53.9407 50.2628 53.8584 50.1812C53.7761 50.0995 53.7142 50 53.6776 49.8904C53.6409 49.7809 53.6305 49.6643 53.6472 49.5501C53.6472 49.1298 53.9462 48.8083 54.5193 48.5858C55.0047 48.4548 55.4583 48.2272 55.8523 47.9169C56.2464 47.6067 56.5728 47.2202 56.8117 46.7809C57.2698 45.4542 57.4644 44.0521 57.3848 42.6519V33.6027C57.5412 30.7037 56.8116 27.8254 55.2918 25.3447C54.6877 24.3907 53.8441 23.6088 52.8438 23.0757C51.8435 22.5426 50.7208 22.2765 49.5857 22.3035C47.688 22.2107 45.8259 22.8384 44.3779 24.059C43.7271 24.6331 43.2129 25.3434 42.8725 26.1387C42.5321 26.934 42.3739 27.7944 42.4094 28.6578V41.4404C42.284 43.2575 42.7656 45.065 43.7799 46.5831C44.3641 47.1832 45.0651 47.6593 45.8404 47.9823C46.6157 48.3053 47.4491 48.4686 48.29 48.4622C49.0126 48.4622 49.3614 48.8331 49.3614 49.3523C49.3614 49.8715 48.9129 50.4155 48.0159 50.4155C46.9911 50.4135 45.9674 50.3474 44.951 50.2177C42.0357 49.8715 39.9675 49.6984 38.921 49.6984C37.1862 49.7114 35.4545 49.8436 33.7382 50.094C33.1041 50.2092 32.4632 50.2835 31.8195 50.3166C31.1966 50.3166 30.8726 50.0446 30.8726 49.5006C30.8784 49.3165 30.9449 49.1394 31.0619 48.9965C31.179 48.8535 31.3401 48.7527 31.5205 48.7094C32.4932 48.4306 33.3605 47.8712 34.0122 47.1023C34.4423 46.105 34.6218 45.019 34.5355 43.9376V42.6766V29.2017V27.6935C34.6299 26.4 34.4429 25.1015 33.9873 23.8859C33.7803 23.5318 33.4757 23.2436 33.1094 23.0553C32.743 22.867 32.3301 22.7863 31.9192 22.8227H30.15C30.0436 22.8336 29.936 22.819 29.8363 22.7803C29.7367 22.7416 29.6477 22.6799 29.5769 22.6002C29.5027 22.5264 29.4462 22.437 29.4117 22.3385C29.3772 22.24 29.3655 22.1351 29.3776 22.0316C29.3568 21.8247 29.4007 21.6164 29.5032 21.4351C29.6057 21.2538 29.7619 21.1081 29.9507 21.0178C31.0627 20.606 32.2037 20.2754 33.3644 20.0289C36.2503 19.4281 38.9971 18.2959 41.4626 16.691C41.5971 16.5609 41.7736 16.4821 41.9609 16.4685C42.2849 16.4685 42.4344 16.691 42.4344 17.2102L42.3098 19.114V21.2898L42.534 22.7486C42.534 23.07 42.8081 23.2183 43.0324 23.2431C43.2566 23.2678 43.6553 22.9216 44.2783 22.2293C45.392 20.8351 46.8198 19.7196 48.447 18.9724C50.0742 18.2253 51.8553 17.8673 53.6472 17.9273C55.3389 17.7702 57.0434 18.0312 58.6087 18.687C60.1739 19.3428 61.5512 20.3729 62.6175 21.6854C64.4116 24.2073 65.3086 28.3281 65.3086 34.0477" fill="#231A16"/>
<path d="M94.3868 22.7244V41.4162C94.2388 43.0645 94.5948 44.7188 95.4084 46.1633C95.8612 46.6549 96.4241 47.034 97.0517 47.2702C97.6792 47.5064 98.3539 47.5931 99.0214 47.5232C99.9388 47.4785 100.845 47.3037 101.712 47.004C102.542 46.7889 103.327 46.4289 104.03 45.9408C104.211 45.7898 104.424 45.6801 104.653 45.6194C104.977 45.6194 105.151 45.8914 105.226 46.4106V46.8062L104.752 47.4738C102.066 50.0061 98.4904 51.3987 94.7854 51.3555C92.5609 51.4833 90.3677 50.7873 88.6308 49.4023C87.9003 48.5797 87.345 47.619 86.9982 46.578C86.6513 45.5371 86.5201 44.4373 86.6125 43.3447V22.7244H84.1207C82.8998 22.7244 82.2769 22.3782 82.2769 21.7107C82.2769 21.0431 82.6008 20.87 83.2486 20.425C84.9535 19.1437 86.5456 17.721 88.0079 16.1724C89.5387 14.7021 90.9316 13.0966 92.1691 11.3758C92.9665 10.1148 93.5645 9.52143 93.9382 9.54615C94.312 9.57088 94.2622 9.74395 94.2871 10.1148V18.991H99.8935C100.658 19.055 101.424 18.8823 102.086 18.4965L103.083 17.8536C103.289 17.7066 103.529 17.6131 103.781 17.5817C104.229 17.5817 104.429 17.7547 104.404 18.1998C104.355 18.492 104.263 18.7753 104.129 19.0404C103.917 19.5909 103.767 20.1631 103.681 20.7464C103.382 22.0568 102.684 22.7244 101.538 22.7244H94.3868Z" fill="#231A16"/>
<path d="M128.326 31.0313V41.7865C128.218 42.6103 128.283 43.4472 128.517 44.2449C128.75 45.0425 129.147 45.7837 129.683 46.422C130.219 47.0603 130.881 47.582 131.63 47.9543C132.378 48.3266 133.196 48.5416 134.032 48.5858C134.829 48.5858 135.228 49.0061 135.228 49.5254C135.228 50.0446 134.929 50.4896 134.356 50.4896C133.991 50.5199 133.624 50.5199 133.259 50.4896C130.62 50.0973 127.954 49.9072 125.286 49.9209C123.84 49.9209 122.545 49.9209 121.374 50.0693L118.882 50.2918C118.434 50.3171 117.984 50.3171 117.536 50.2918C116.814 50.2918 116.44 49.9457 116.44 49.2781C116.44 48.6105 116.764 48.4869 117.412 48.3386C119.455 47.8441 120.452 45.8661 120.452 42.6519V27.3474C120.583 26.0834 120.332 24.8092 119.729 23.6881C118.89 22.942 117.79 22.5515 116.664 22.6002C116.066 22.6002 115.767 22.3282 115.767 21.7843C115.767 21.2156 116.116 20.8695 116.814 20.7706C120.039 20.3627 123.158 19.3562 126.008 17.8036L127.528 16.9383C127.698 16.8225 127.896 16.7541 128.101 16.7405C128.5 16.7405 128.674 17.0124 128.674 17.5811C128.674 17.7542 128.674 18.1251 128.674 18.6937L128.5 20.9684L128.35 23.4409V23.8612C128.475 24.2073 128.649 24.4051 128.948 24.4298C129.247 24.4546 129.746 23.8364 130.618 22.6002C131.521 21.4118 132.596 20.3621 133.807 19.4849C134.637 18.6724 135.669 18.0924 136.797 17.8036C138.274 18.0894 139.639 18.7836 140.734 19.8063C142.479 21.1167 143.226 22.1304 143.401 22.7733C143.089 23.7196 142.662 24.6247 142.13 25.4683C141.083 27.4462 140.136 28.4105 139.339 28.4105C138.995 28.4109 138.664 28.2778 138.417 28.0396L137.346 27.0754C136.139 25.9258 134.533 25.2797 132.86 25.2705C129.821 25.2705 128.326 27.2732 128.326 31.2538" fill="#231A16"/>
<path d="M171.133 17.9272C173.372 17.8351 175.607 18.1951 177.701 18.9857C179.796 19.7762 181.707 20.9807 183.318 22.526C184.885 24.0365 186.117 25.8543 186.937 27.8636C187.756 29.8728 188.144 32.0295 188.077 34.1961C188.129 36.4807 187.697 38.7507 186.808 40.8589C185.92 42.9672 184.595 44.8668 182.919 46.4348C181.212 48.062 179.197 49.3369 176.99 50.1857C174.783 51.0346 172.428 51.4404 170.062 51.3797C167.854 51.4447 165.656 51.0738 163.594 50.2886C161.532 49.5034 159.648 48.3194 158.052 46.8056C156.481 45.3429 155.24 43.5664 154.411 41.5932C153.582 39.6201 153.184 37.495 153.243 35.3581C153.198 33.0472 153.643 30.7528 154.549 28.6233C155.455 26.4938 156.801 24.5766 158.5 22.9958C160.175 21.3437 162.168 20.0417 164.359 19.1669C166.55 18.292 168.896 17.8621 171.258 17.9025M169.264 20.0041C168.087 19.9779 166.923 20.253 165.885 20.803C164.846 21.353 163.967 22.1593 163.334 23.1441C161.767 25.6715 161.011 28.6118 161.166 31.5752C161.056 35.9325 162.224 40.2276 164.53 43.9376C165.314 45.4378 166.482 46.7072 167.917 47.6184C169.351 48.5297 171.002 49.0509 172.703 49.1297C173.853 49.1427 174.989 48.8823 176.016 48.3704C177.043 47.8586 177.932 47.1101 178.609 46.1875C180.159 43.9915 180.938 41.3503 180.826 38.6712C180.977 34.0362 179.812 29.4525 177.462 25.4435C176.7 23.8927 175.533 22.5728 174.082 21.6206C172.632 20.6685 170.951 20.1188 169.215 20.0288" fill="#231A16"/>
<path d="M209.459 26.1107L214.767 37.9044C215.439 39.3631 215.963 40.1296 216.386 40.1543C216.81 40.1791 218.579 37.8302 220.996 33.0089C222.704 30.1293 223.916 26.9875 224.584 23.7125C224.584 21.5037 223.263 20.3169 220.622 20.1521C219.974 20.1521 219.65 19.8554 219.65 19.262C219.65 18.6934 219.999 18.4214 220.722 18.4214L222.79 18.545H225.282L228.496 18.7428L230.166 18.5697C230.568 18.4911 230.976 18.4415 231.386 18.4214C231.86 18.4214 232.084 18.6933 232.084 19.2126C232.087 19.493 231.988 19.7651 231.805 19.9787C231.622 20.1922 231.367 20.3329 231.087 20.3746C230.525 20.5985 230.015 20.9329 229.587 21.3579C229.158 21.7828 228.821 22.2894 228.596 22.8471L226.827 26.358L223.189 33.5034C217.483 45.124 214.119 50.8107 213.222 50.8107C212.698 50.8107 212.225 50.3656 211.826 49.4755L211.428 48.5607L201.785 27.52L201.087 26.1355L199.542 22.9213C199.111 21.8688 198.328 20.9957 197.324 20.4488C196.328 20.0532 195.804 19.6823 195.779 19.3115C195.754 18.9406 196.029 18.4955 196.627 18.4461H196.975C198.858 18.7085 200.756 18.8571 202.657 18.8911C203.653 18.8911 205.373 18.8911 207.765 18.6192C209.235 18.4955 210.256 18.4461 210.929 18.4461C211.566 18.3643 212.211 18.3643 212.848 18.4461C213.097 18.4461 213.197 18.7675 213.197 19.1631C213.197 19.5587 212.848 19.979 212.125 20.1274C209.633 20.523 208.413 21.3636 208.413 22.5998C208.572 23.7769 208.943 24.916 209.509 25.9624" fill="#231A16"/>
<path d="M13.7302 5.83693C13.7302 6.89808 13.4131 7.93539 12.8189 8.8177C12.2248 9.70001 11.3803 10.3877 10.3923 10.7938C9.4043 11.1999 8.31711 11.3061 7.26824 11.0991C6.21937 10.8921 5.25592 10.3811 4.49972 9.63073C3.74352 8.88039 3.22855 7.92439 3.01991 6.88364C2.81128 5.84288 2.91836 4.76411 3.32761 3.78374C3.73686 2.80336 4.4299 1.96543 5.31909 1.37589C6.20828 0.786347 7.25369 0.47168 8.32311 0.47168C9.75716 0.47168 11.1325 1.03695 12.1465 2.04312C13.1605 3.0493 13.7302 4.41398 13.7302 5.83693Z" fill="#CD2B2B"/>
<path d="M322.231 66.4375V41.7375H327.165L337.905 57.8086V41.7375H343.187V66.4375H338.253L327.489 50.3417V66.4375H322.231Z" fill="#231A16"/>
<path d="M348.397 66.437V41.7371H364.594V46.2122H353.73V51.7258H363.597V56.2257H353.73V61.9618H364.943V66.437H348.397Z" fill="#231A16"/>
<path d="M375.209 66.4375V46.2127H367.858V41.7375H387.917V46.2127H380.566V66.4375H375.209Z" fill="#231A16"/>
<path d="M439.744 41.7375H436.555V66.4375H439.744V41.7375Z" fill="#231A16"/>
<path d="M451.904 66.4375V44.4573H444.03V41.7375H462.968V44.4573H455.094V66.4375H451.904Z" fill="#231A16"/>
<path d="M467.253 66.437V41.7371H482.603V44.4568H470.443V52.5417H481.606V55.2614H470.443V63.742H482.927V66.437H467.253Z" fill="#231A16"/>
<path d="M504.131 21.7352C502.283 21.7308 500.487 21.1303 499.012 20.0243C497.538 18.9183 496.466 17.3667 495.958 15.6035H517.512L520.477 11.0789H495.958C496.463 9.31361 497.534 7.75974 499.009 6.65313C500.484 5.54652 502.282 4.94758 504.131 4.94718H518.932L521.898 0.348398H503.783C500.402 0.494618 497.209 1.93 494.869 4.35526C492.529 6.78051 491.223 10.0084 491.223 13.3659C491.223 16.7234 492.529 19.9513 494.869 22.3766C497.209 24.8018 500.402 26.2372 503.783 26.3834H519.356L522.321 21.8094L504.131 21.7352ZM442.461 26.3093H458.034L460.974 21.7352H442.809C440.556 21.7352 438.395 20.8469 436.801 19.2658C435.208 17.6847 434.313 15.5402 434.313 13.3041C434.313 11.068 435.208 8.92356 436.801 7.34242C438.395 5.76128 440.556 4.87301 442.809 4.87301H457.61L460.576 0.274227H442.461C440.69 0.197627 438.922 0.477585 437.263 1.09724C435.604 1.71689 434.088 2.66341 432.808 3.87974C431.527 5.09608 430.508 6.55705 429.812 8.17462C429.116 9.79219 428.757 11.5329 428.757 13.2918C428.757 15.0506 429.116 16.7913 429.812 18.4089C430.508 20.0265 431.527 21.4874 432.808 22.7038C434.088 23.9201 435.604 24.8666 437.263 25.4863C438.922 26.1059 440.69 26.3859 442.461 26.3093ZM346.678 21.7352H332.076C329.823 21.7352 327.661 20.8469 326.068 19.2658C324.475 17.6847 323.579 15.5402 323.579 13.3041C323.579 11.068 324.475 8.92356 326.068 7.34242C327.661 5.76128 329.823 4.87301 332.076 4.87301H346.653C348.906 4.87301 351.068 5.76128 352.661 7.34242C354.255 8.92356 355.15 11.068 355.15 13.3041C355.15 15.5402 354.255 17.6847 352.661 19.2658C351.068 20.8469 348.906 21.7352 346.653 21.7352M331.702 26.3093H346.952C350.332 26.1631 353.526 24.7277 355.865 22.3024C358.205 19.8772 359.512 16.6492 359.512 13.2918C359.512 9.93425 358.205 6.70634 355.865 4.28109C353.526 1.85583 350.332 0.420447 346.952 0.274227H331.702C329.932 0.197627 328.163 0.477585 326.504 1.09724C324.845 1.71689 323.33 2.66341 322.05 3.87974C320.769 5.09608 319.75 6.55705 319.054 8.17462C318.358 9.79219 317.999 11.5329 317.999 13.2918C317.999 15.0506 318.358 16.7913 319.054 18.4089C319.75 20.0265 320.769 21.4874 322.05 22.7038C323.33 23.9201 324.845 24.8666 326.504 25.4863C328.163 26.1059 329.932 26.3859 331.702 26.3093ZM384.802 17.8782C387.154 17.8782 389.41 16.9508 391.074 15.3001C392.738 13.6494 393.672 11.4106 393.672 9.07619C393.672 6.74177 392.738 4.50295 391.074 2.85226C389.41 1.20157 387.154 0.274227 384.802 0.274227H362.725V26.3093H367.708V4.87301H384.378C384.963 4.8285 385.551 4.90447 386.106 5.09614C386.66 5.28781 387.168 5.59105 387.599 5.98685C388.03 6.38265 388.373 6.86246 388.608 7.39621C388.843 7.92996 388.964 8.50612 388.964 9.08856C388.964 9.671 388.843 10.2472 388.608 10.7809C388.373 11.3147 388.03 11.7945 387.599 12.1903C387.168 12.5861 386.66 12.8893 386.106 13.081C385.551 13.2727 384.963 13.3486 384.378 13.3041H370.2L385.15 26.3093H392.626L382.659 17.8782H384.802ZM468.25 21.7105V0.274227H463.267V23.8121C463.276 24.4643 463.545 25.0863 464.014 25.5428C464.252 25.79 464.538 25.9857 464.855 26.1176C465.173 26.2495 465.514 26.3148 465.858 26.3093H488.832L491.847 21.7105H468.25ZM406.505 17.1364H420.035L412.933 5.73837L399.877 26.3093H393.921L409.819 1.58463C410.169 1.09479 410.632 0.695281 411.169 0.419579C411.707 0.143876 412.303 0 412.908 0C413.514 0 414.11 0.143876 414.648 0.419579C415.185 0.695281 415.648 1.09479 415.998 1.58463L431.921 26.3093H425.99L423.174 21.7105H409.545L406.505 17.1364Z" fill="#231A16"/>
<path d="M391.103 65.4733V62.5805C393.381 63.5493 395.826 64.0699 398.304 64.1134C399.883 64.2148 401.453 63.8166 402.789 62.9761C403.31 62.6465 403.735 62.1883 404.023 61.6465C404.312 61.1047 404.453 60.4979 404.434 59.8855C404.455 59.4266 404.378 58.9685 404.206 58.542C404.034 58.1155 403.772 57.7305 403.437 57.413C402.364 56.5469 401.139 55.8847 399.824 55.4598L397.332 54.4461C395.548 53.8439 393.916 52.8655 392.548 51.578C391.591 50.5687 391.064 49.2308 391.078 47.8446C391.048 46.9132 391.246 45.9885 391.654 45.149C392.061 44.3096 392.668 43.5803 393.42 43.0233C395.29 41.7484 397.535 41.1305 399.799 41.2678C400.955 41.2715 402.108 41.3959 403.238 41.6387C404.306 41.8564 405.338 42.2227 406.303 42.7266V45.6935C404.274 44.7737 402.079 44.2692 399.849 44.2101C396.136 44.2101 394.268 45.471 394.268 47.9929C394.268 48.3979 394.358 48.7977 394.53 49.1649C394.702 49.532 394.953 49.8577 395.264 50.1193C396.318 50.9266 397.496 51.561 398.753 51.9983L401.394 53.012C403.265 53.6041 404.971 54.6199 406.377 55.979C407.347 57.0697 407.872 58.4806 407.848 59.935C407.885 60.9357 407.678 61.9306 407.244 62.8347C406.811 63.7389 406.163 64.5254 405.356 65.1271C403.41 66.4678 401.067 67.1208 398.703 66.9815C397.786 66.9744 396.87 66.9083 395.962 66.7837C395.072 66.6504 394.19 66.4688 393.321 66.2397C392.602 66.0548 391.902 65.8066 391.228 65.498" fill="#231A16"/>
<path d="M411.688 55.3114V41.7375H414.877V55.2619C414.708 57.5904 415.246 59.9158 416.422 61.9376C417.044 62.6211 417.803 63.1675 418.651 63.5415C419.498 63.9155 420.416 64.1088 421.343 64.1088C422.271 64.1088 423.189 63.9155 424.036 63.5415C424.884 63.1675 425.643 62.6211 426.265 61.9376C427.461 59.9231 428.009 57.5939 427.834 55.2619V41.7375H430.999V55.3114C431.222 58.4279 430.341 61.5238 428.507 64.0639C426.523 65.8639 423.932 66.862 421.244 66.862C418.555 66.862 415.964 65.8639 413.98 64.0639C412.147 61.5238 411.265 58.4279 411.489 55.3114" fill="#231A16"/>
</svg>
