<svg width="95" height="94" viewBox="0 0 95 94" fill="none" xmlns="http://www.w3.org/2000/svg">
<path d="M0.639648 58.6377C0.712656 58.5105 0.773925 58.377 0.822695 58.2387C1.62627 55.1763 3.88873 53.1134 7.02798 52.8937C9.16041 52.7304 11.3022 52.7304 13.4346 52.8937C16.799 53.1628 19.034 55.3905 19.7735 59.0148H20.8132C27.0057 59.0148 33.1982 59.0331 39.3907 59.0038C41.5872 58.9947 43.4177 59.7232 44.9589 61.2992C47.8639 64.2591 50.8421 67.1567 53.736 70.1202C54.719 71.1288 55.5409 72.2912 56.5623 73.5377C58.552 73.0398 60.8218 72.4779 63.0879 71.9068C71.264 69.8493 79.4444 67.7919 87.629 65.7344C88.8683 65.4281 90.1764 65.5769 91.3152 66.1537C92.454 66.7305 93.3479 67.697 93.8343 68.8773C94.3342 70.0529 94.4031 71.3672 94.0287 72.5885C93.6543 73.8098 92.8607 74.8597 91.7878 75.5531C90.8543 76.1406 90.0031 76.051 89.5455 75.3133C89.1043 74.6031 89.3533 73.8837 90.2557 73.2595C91.4455 72.4376 91.8281 71.1618 91.2661 69.8988C90.717 68.676 89.5327 68.1031 88.1708 68.4435C77.7981 71.0416 67.431 73.6402 57.0693 76.2395C56.8504 76.2761 56.6471 76.376 56.4844 76.527C56.3217 76.6779 56.2069 76.8733 56.1541 77.0888C54.7757 81.2202 49.7255 82.4796 46.6027 79.4446C43.5843 76.5159 40.6372 73.5029 37.6645 70.5229C36.9085 69.7633 36.8353 68.9616 37.4321 68.3593C38.0288 67.7571 38.8415 67.8212 39.5938 68.5698C42.5104 71.4766 45.422 74.3889 48.3288 77.3067C49.2441 78.2219 50.3204 78.588 51.5797 78.2054C52.7274 77.8485 53.4011 77.0193 53.65 75.8569C53.7642 75.3928 53.7568 74.9071 53.6285 74.4467C53.5003 73.9862 53.2555 73.5666 52.9178 73.2284C49.4399 69.712 45.9767 66.1939 42.4201 62.7636C41.7574 62.1806 40.9134 61.8449 40.0313 61.8136C33.4123 61.7404 26.7934 61.7733 20.1744 61.7788C20.0578 61.7963 19.9431 61.8251 19.8321 61.8648C19.8156 62.176 19.7863 62.5018 19.7863 62.8258C19.7863 67.8889 19.8028 72.952 19.7644 78.0187C19.7644 78.8003 19.9914 79.0822 20.7583 79.1609C27.3315 79.8254 33.308 82.2727 39.063 85.3516C41.7739 86.8031 44.5306 88.1705 47.247 89.6092C50.908 91.5495 54.5378 91.4397 58.1877 89.5854C67.0887 85.0495 75.9933 80.5203 84.9016 75.9979C85.8315 75.5238 86.6515 75.7416 87.0085 76.5031C87.3654 77.2646 87.0268 77.9894 86.0694 78.4745C77.6804 82.7358 69.2822 86.9697 60.8987 91.2621C58.8559 92.3092 56.8478 93.3416 54.5231 93.6418C51.1807 94.0719 48.1952 93.2006 45.2244 91.6777C39.7824 88.8862 34.3056 86.124 28.6806 83.7444C26.096 82.6461 23.1233 82.4631 20.3245 81.8773C20.1418 81.8615 19.9581 81.8615 19.7754 81.8773C19.7754 82.5601 19.7754 83.1934 19.7754 83.825C19.7259 88.2382 16.8118 91.1468 12.4114 91.1853C10.8866 91.1962 9.36 91.2054 7.83522 91.1853C4.26031 91.1322 1.71596 89.1278 0.80256 85.6719C0.759575 85.5632 0.704953 85.4595 0.639648 85.3625L0.639648 78.7729C1.13204 78.2109 1.64091 77.6837 2.49574 78.0187C3.35057 78.3537 3.41098 79.0621 3.3945 79.8309C3.3762 81.1726 3.38535 82.5143 3.3945 83.8579C3.40366 86.675 5.13162 88.4066 7.97067 88.4341C9.46433 88.4451 10.9586 88.4451 12.4535 88.4341C15.2944 88.4139 17.0297 86.7153 17.0297 83.8707C17.0394 75.9387 17.0327 68.0067 17.0095 60.0746C17.0095 57.2795 15.2871 55.5991 12.4864 55.5753C10.9903 55.5607 9.49545 55.5607 8.00179 55.5753C5.11331 55.5973 3.40732 57.3179 3.40549 60.2101C3.40549 64.5703 3.40549 68.9323 3.40549 73.2943C3.40549 74.085 3.28834 74.7934 2.45181 75.0698C1.61529 75.3462 1.06066 74.8868 0.648801 74.1967L0.639648 58.6377Z" fill="#E58C4A"/>
<path d="M53.2166 48.5369L48.1389 52.7891C46.5134 54.1491 44.9667 54.0265 43.6084 52.423C42.3466 50.933 41.0916 49.4381 39.8432 47.9384C38.5618 46.4081 38.6936 44.8174 40.2093 43.5343C41.7249 42.2511 43.224 40.9588 44.7745 39.7232C45.2778 39.3223 45.3401 38.991 45.1039 38.4199C44.5072 36.9739 44.5328 36.9556 42.9275 36.9556C41.2179 36.9556 39.51 36.9702 37.8022 36.9556C35.8216 36.9336 34.7142 35.795 34.7069 33.7998C34.6996 31.8046 34.6977 29.8332 34.7069 27.8508C34.7179 25.916 35.8546 24.7775 37.7747 24.772C39.7883 24.772 41.8018 24.7463 43.8153 24.7829C44.4084 24.7939 44.65 24.5999 44.8275 24.0343C45.3089 22.4949 45.3456 22.504 44.1063 21.4606C42.7792 20.3386 41.4393 19.2293 40.1196 18.0981C38.7376 16.9156 38.5985 15.3176 39.7535 13.9045C41.0714 12.3034 42.4034 10.7134 43.7494 9.13427C44.9264 7.75227 46.528 7.60766 47.9485 8.76818C49.4824 10.0257 51.009 11.2924 52.499 12.5994C53.0079 13.0442 53.4252 13.2107 53.9799 12.7257C54.1923 12.5505 54.434 12.4142 54.6938 12.3229C55.2026 12.1399 55.2575 11.7738 55.1679 11.3034C54.8201 9.44728 54.5052 7.58387 54.1593 5.72777C53.709 3.31522 54.5711 2.09246 56.9965 1.68793C58.827 1.38224 60.6574 1.04727 62.4879 0.712291C64.3806 0.366333 65.7351 1.25045 66.0994 3.13766C66.4527 4.96813 66.8151 6.7986 67.0494 8.62906C67.1666 9.55894 67.4521 10.0806 68.4497 10.0733C68.8158 10.0733 69.1673 10.1886 69.6249 10.2692L72.3523 5.56852C72.5976 5.14752 72.8337 4.72102 73.0845 4.30367C74.0143 2.77889 75.5227 2.34873 77.0914 3.22003C78.9548 4.25852 80.8011 5.3269 82.6304 6.42518C84.113 7.31662 84.5011 8.85421 83.6499 10.3735C82.6523 12.1564 81.6364 13.9319 80.5821 15.6819C80.2508 16.231 80.2819 16.5513 80.7084 17.0163C81.7646 18.1731 81.7389 18.1969 83.2216 17.6588C84.8525 17.0639 86.4798 16.4598 88.1144 15.8795C89.8937 15.248 91.3397 15.9125 92.0005 17.6752C92.7327 19.6137 93.4448 21.5558 94.133 23.5089C94.7389 25.2241 94.047 26.6848 92.3337 27.3255C90.452 28.0284 88.5647 28.7239 86.6592 29.3756C86.079 29.5751 85.8611 29.8405 85.8904 30.4739C85.9618 32.0609 85.9234 32.0609 87.4079 32.5972C89.0114 33.1775 90.6185 33.7486 92.2183 34.3416C94.0836 35.0336 94.7462 36.4705 94.0726 38.3485C93.399 40.2266 92.7126 42.1339 92.0097 44.023C91.3489 45.7912 89.9083 46.4685 88.1346 45.8425C86.2382 45.1725 84.3419 44.5044 82.4693 43.774C81.8707 43.5416 81.554 43.6569 81.1733 44.1511C80.2324 45.3849 80.2068 45.3666 81.0031 46.7467C81.8414 48.1983 82.6871 49.6462 83.52 51.0996C84.5505 52.9008 84.1661 54.3944 82.3961 55.4396C80.6608 56.4549 78.9182 57.4592 77.1682 58.4526C75.5208 59.3788 73.9887 58.9596 73.035 57.3323C72.0155 55.597 71.0014 53.8544 70.0258 52.1027C69.7439 51.5975 69.4528 51.4272 68.8671 51.5535C67.313 51.8995 67.2947 51.8702 66.9982 53.4774C66.7016 55.0845 66.4289 56.6532 66.1708 58.2457C65.8047 60.4258 64.5325 61.3575 62.3616 60.9914C60.381 60.651 58.4017 60.2958 56.4236 59.9261C54.8201 59.6296 53.8481 58.3867 54.0732 56.7667C54.346 54.8063 54.6645 52.8477 55.0873 50.9092C55.285 50.005 55.1441 49.4705 54.2636 49.1446C53.9176 49.0183 53.6229 48.7822 53.2166 48.5369ZM81.3252 52.8678C81.1568 52.5566 81.0232 52.2894 80.8731 52.0313C79.7346 50.0489 78.607 48.061 77.4465 46.0933C76.9541 45.2604 77.0401 44.5868 77.7119 43.8766C78.5045 43.0364 79.233 42.1321 79.9396 41.2169C80.4613 40.5396 81.0598 40.3364 81.8542 40.633C82.9965 41.0558 84.1442 41.4622 85.29 41.8759L89.3372 43.3402C90.117 41.1858 90.8565 39.1448 91.6125 37.0599C89.1596 36.1685 86.813 35.3191 84.4736 34.4643C83.1923 33.9994 82.9818 33.6131 83.0825 32.2787C83.1557 31.4264 83.1673 30.57 83.1173 29.7161C82.9946 27.913 83.066 27.7648 84.805 27.1314C87.0564 26.3114 89.3061 25.484 91.6198 24.642L89.3299 18.3763C86.91 19.2513 84.5707 20.1006 82.2203 20.939C80.864 21.4277 80.5876 21.3215 79.7437 20.2068C79.1531 19.4307 78.5271 18.6838 77.8657 17.9663C76.9339 16.9559 76.8699 16.6081 77.5709 15.3926C78.8157 13.2345 80.064 11.0782 81.3527 8.84872L75.5812 5.52459C75.3982 5.82479 75.2389 6.07373 75.0888 6.33915C73.943 8.31605 72.7861 10.2875 71.6622 12.2772C71.1863 13.121 70.5639 13.3755 69.6102 13.1503C68.4842 12.8844 67.3438 12.6839 66.1946 12.5499C65.3361 12.4456 64.862 12.0301 64.7174 11.2009C64.5954 10.4797 64.4697 9.75907 64.3403 9.03909L63.3317 3.36464L56.7988 4.5215C56.8427 4.88759 56.8629 5.17863 56.9141 5.46968C57.3022 7.66624 57.6994 9.84816 58.0838 12.0392C58.3034 13.2949 58.0838 13.6683 56.9965 14.2358C56.1856 14.655 55.382 15.0943 54.6169 15.5867C53.1013 16.5587 52.9493 16.5605 51.6003 15.4219C49.7698 13.8734 47.9192 12.3358 46.0045 10.7323L41.7139 15.8429C42.08 16.1596 42.3765 16.4195 42.6767 16.6721C44.3589 18.0834 46.0338 19.502 47.7288 20.8969C48.45 21.4918 48.5708 22.1489 48.2084 23.0019C47.7626 24.0355 47.3752 25.0934 47.0479 26.1704C46.7715 27.1003 46.2498 27.5396 45.2723 27.5213C43.6872 27.492 42.1001 27.5213 40.5131 27.5213H37.4874V34.2208H38.4959C40.7529 34.2208 43.0099 34.2373 45.2687 34.2208C46.237 34.2117 46.777 34.6107 47.0516 35.5571C47.375 36.6346 47.7619 37.692 48.2102 38.7238C48.5763 39.5768 48.4555 40.2303 47.7307 40.827C45.9185 42.3207 44.1283 43.8418 42.3326 45.3537C42.1331 45.5221 41.9519 45.7198 41.734 45.9194L46.0064 50.9788C48.0894 49.2325 50.081 47.5741 52.0469 45.8992C52.7278 45.3226 53.3905 45.286 54.1227 45.7949C54.6974 46.1958 55.2887 46.5747 55.8982 46.917C58.3437 48.2788 58.3346 48.2697 57.8165 51.0685C57.4504 53.0673 57.1173 55.0717 56.753 57.1731L63.3281 58.3464C63.8003 55.6629 64.2616 53.1204 64.6936 50.5724C64.8437 49.6901 65.3361 49.2581 66.2092 49.1355C67.3533 48.9762 68.501 48.8133 69.6231 48.5479C70.584 48.3209 71.1918 48.6101 71.664 49.4485C72.7861 51.44 73.943 53.4096 75.0888 55.3884C75.2353 55.641 75.3982 55.8863 75.5794 56.1791L81.3252 52.8678Z" fill="#E58C4A"/>
<path d="M5.45068 80.9784C5.60444 80.4293 5.68864 79.849 5.92844 79.3402C6.03679 79.064 6.24814 78.8408 6.51793 78.7175C6.78771 78.5942 7.09483 78.5805 7.37451 78.6794C8.06459 78.8825 8.4435 79.3621 8.42153 80.1016C8.42153 80.3725 8.32086 80.6416 8.3117 80.9144C8.29641 81.246 8.36803 81.5759 8.51948 81.8714C8.67093 82.1668 8.89695 82.4176 9.17515 82.5988C9.45334 82.78 9.77406 82.8854 10.1055 82.9045C10.437 82.9236 10.7677 82.8558 11.0649 82.7077C11.362 82.5597 11.6154 82.3366 11.7998 82.0605C11.9842 81.7844 12.0932 81.4649 12.1162 81.1337C12.1391 80.8025 12.0751 80.471 11.9305 80.1722C11.7858 79.8733 11.5657 79.6174 11.2917 79.4298C11.1691 79.342 11.0281 79.2797 10.9018 79.1955C10.1513 78.6977 9.93899 78.0112 10.3161 77.3211C10.6931 76.6311 11.4546 76.4279 12.2893 76.8306C13.9715 77.6433 15.068 79.5873 14.8703 81.4068C14.6506 83.4496 13.2027 85.1171 11.2771 85.5454C10.5857 85.7015 9.86824 85.7017 9.17676 85.5461C8.48529 85.3904 7.83713 85.0828 7.2793 84.6456C6.72148 84.2083 6.26797 83.6524 5.95168 83.0181C5.6354 82.3838 5.46426 81.6871 5.45068 80.9784Z" fill="#E58C4A"/>
<path d="M60.0755 37.7301C60.4306 37.1956 60.577 36.8734 60.8076 36.6318C65.5449 31.8726 70.2876 27.125 75.0359 22.389C75.2393 22.1618 75.4623 21.953 75.7022 21.7648C76.3081 21.3419 76.9249 21.3822 77.4503 21.8947C77.9756 22.4073 78.0269 23.0241 77.6205 23.6392C77.4368 23.8823 77.2295 24.1067 77.0018 24.3091C72.1071 29.2062 67.2112 34.1027 62.3141 38.9986C60.6667 40.646 59.4421 40.646 57.7819 38.9858C55.7684 36.9723 53.764 34.9807 51.767 32.9654C50.9524 32.1435 50.9982 31.1349 51.8585 30.648C52.5907 30.2252 53.1892 30.5034 53.7366 31.0544C55.6073 32.9361 57.4927 34.8032 59.3616 36.6886C59.5831 36.9101 59.7149 37.1974 60.0755 37.7301Z" fill="#E58C4A"/>
</svg>
