<svg width="42" height="50" viewBox="0 0 42 50" fill="none" xmlns="http://www.w3.org/2000/svg">
<g clip-path="url(#clip0_113_14162)">
<path d="M17.0631 0C18.218 0.254001 19.2845 0.691232 20.1886 1.49007C20.6988 1.94185 21.1523 2.44306 21.4626 3.04704C21.6711 3.45325 21.9431 3.58801 22.3764 3.55892C22.8693 3.52596 23.366 3.5502 23.8618 3.55117C25.1848 3.55504 25.9131 4.25306 25.9765 5.5793C25.9983 6.03107 26.2328 6.25728 26.6799 6.25793C27.5427 6.25793 28.4055 6.25696 29.2673 6.25793C31.0506 6.26083 32.2036 7.40675 32.217 9.21772C32.2314 11.0074 32.2209 12.797 32.2209 14.5866C32.2209 19.3758 32.2209 24.164 32.2209 28.9532C32.2209 29.4121 32.439 29.6564 32.8752 29.6861C37.4871 30.0022 41.3889 33.7414 41.928 38.36C42.5803 43.9509 38.7246 48.9136 33.1903 49.5331C31.0026 49.7784 28.9253 49.3256 27.045 48.1293C26.6741 47.8928 26.3071 47.8036 25.8776 47.8036C18.3054 47.8113 10.7333 47.8094 3.16205 47.8094C1.42298 47.8094 0.577464 47.2093 0.000976562 45.5709V8.4179C0.703331 6.72715 1.39992 6.25986 3.21489 6.25986C4.06137 6.25986 4.90881 6.25017 5.75528 6.26471C6.07619 6.26956 6.24338 6.17164 6.21071 5.82554C6.19918 5.69757 6.20686 5.56766 6.21167 5.43872C6.25298 4.34322 7.03316 3.57153 8.11696 3.55504C8.50032 3.54923 8.88849 3.5153 9.26609 3.56183C10.0319 3.6549 10.6449 3.50851 10.9293 2.68834C10.9542 2.61563 11.0205 2.55746 11.0676 2.49251C12.0669 1.12749 13.4437 0.378093 15.0502 0.00193894H17.0631V0ZM1.85246 27.0201C1.85246 32.9212 1.85246 38.8224 1.85246 44.7236C1.85246 45.566 2.12341 45.8559 2.918 45.8559C9.91464 45.8578 16.9113 45.8578 23.9089 45.854C24.0415 45.854 24.2269 45.9306 24.298 45.7687C24.3528 45.6436 24.2067 45.5428 24.1356 45.441C23.0182 43.8491 22.3783 42.0876 22.311 40.1312C22.2995 39.788 22.1727 39.6843 21.8518 39.6901C21.0697 39.7046 20.2866 39.6949 19.5036 39.694C18.1142 39.694 16.7239 39.7017 15.3346 39.6891C14.6313 39.6823 14.1883 39.218 14.2662 38.6159C14.3334 38.104 14.7197 37.8006 15.3317 37.8006C17.5358 37.7977 19.7409 37.7919 21.945 37.8064C22.312 37.8093 22.4715 37.6969 22.5695 37.3285C23.5889 33.4777 26.0236 31.0298 29.8227 29.9673C30.1532 29.8752 30.2935 29.7365 30.2935 29.3749C30.2848 22.6352 30.2887 15.8954 30.2839 9.15567C30.2839 8.46056 29.9774 8.16487 29.2808 8.16002C28.3863 8.15324 27.4908 8.18329 26.5972 8.14839C26.113 8.129 25.9698 8.28509 25.965 8.77467C25.9487 10.1591 25.2031 10.8648 23.8243 10.8648C18.6648 10.8658 13.5052 10.8658 8.34467 10.8639C8.12176 10.8639 7.89405 10.8639 7.67787 10.8183C6.74876 10.6205 6.20302 9.85951 6.21743 8.72523C6.2232 8.28024 6.08772 8.13288 5.64479 8.14936C4.81561 8.18038 3.98354 8.15809 3.1534 8.15809C2.09939 8.15809 1.85246 8.4053 1.85246 9.46202C1.85246 15.3147 1.85246 21.1674 1.85246 27.0211V27.0201ZM32.1277 31.5737C31.7337 31.5368 31.2898 31.6212 30.8507 31.69C24.9571 32.613 22.1708 39.7453 25.8219 44.5239C26.1005 44.8884 26.2561 44.8477 26.5569 44.5588C28.1845 42.995 30.1417 42.2175 32.3813 42.2815C34.4548 42.3416 36.2688 43.121 37.7696 44.5801C38.0636 44.8651 38.2221 44.869 38.4681 44.5316C39.7248 42.8108 40.2965 40.9097 40.064 38.7691C39.6201 34.6818 36.2313 31.5805 32.1267 31.5747L32.1277 31.5737ZM16.0427 8.96759C18.5341 8.96759 21.0264 8.96178 23.5178 8.97438C23.8993 8.97632 24.0665 8.87549 24.054 8.46056C24.0299 7.60646 24.0376 6.75139 24.0511 5.89728C24.0559 5.56572 23.9367 5.43679 23.6024 5.44551C22.9317 5.46296 22.2582 5.41255 21.5904 5.46005C20.8237 5.51434 20.3942 5.20314 20.0877 4.48864C19.2653 2.56909 17.2322 1.53467 15.2078 1.9593C13.6916 2.27728 12.6212 3.17889 12.0207 4.61564C11.768 5.21962 11.3645 5.48041 10.7227 5.45714C10.0213 5.43097 9.31605 5.47459 8.61466 5.4426C8.18133 5.42224 8.06412 5.58608 8.07853 6.00102C8.10639 6.79016 8.11023 7.58125 8.07757 8.3704C8.05931 8.82702 8.18902 8.9831 8.6627 8.97923C11.1224 8.95693 13.5821 8.96856 16.0417 8.96856L16.0427 8.96759ZM32.1142 47.6834C33.6294 47.6717 35.0226 47.2752 36.3139 46.4929C36.6166 46.3096 36.6954 46.1855 36.4023 45.8927C34.1665 43.6591 30.1349 43.6513 27.9155 45.8792C27.6426 46.1535 27.6657 46.299 27.9827 46.4919C29.2577 47.2684 30.6365 47.6611 32.1133 47.6834H32.1142Z" fill="white"/>
<path d="M21.4511 27.8528C23.4467 27.8528 25.4433 27.849 27.4389 27.8558C28.1778 27.8577 28.5833 28.197 28.6015 28.7894C28.6159 29.2528 28.3748 29.6134 27.9309 29.723C27.6859 29.7831 27.4255 29.7986 27.1718 29.7986C23.3391 29.8034 19.5074 29.8025 15.6747 29.7986C15.4374 29.7986 15.1924 29.786 14.9637 29.7278C14.5275 29.6163 14.2892 29.3032 14.2662 28.8543C14.2431 28.3967 14.4814 28.0962 14.8984 27.9323C15.1127 27.848 15.3365 27.8528 15.5604 27.8528C17.5243 27.8528 19.4882 27.8528 21.4531 27.8528H21.4511Z" fill="white"/>
<path d="M21.4245 18.8513C23.4365 18.8513 25.4484 18.8474 27.4594 18.8542C28.2108 18.8571 28.6201 19.2265 28.6009 19.8538C28.5874 20.3162 28.3501 20.6196 27.911 20.7205C27.6343 20.7835 27.3412 20.7951 27.0549 20.7951C23.3029 20.8 19.551 20.8 15.799 20.7951C15.529 20.7951 15.2532 20.7815 14.99 20.7263C14.5461 20.6332 14.303 20.323 14.2665 19.877C14.23 19.4214 14.4587 19.1131 14.8718 18.9376C15.1005 18.8407 15.3407 18.8513 15.5799 18.8513C17.5275 18.8513 19.476 18.8513 21.4236 18.8513H21.4245Z" fill="white"/>
<path d="M7.35515 40.6586C6.99197 40.614 6.66817 40.487 6.42797 40.202C5.99272 39.6872 5.55363 39.1753 5.1376 38.645C4.77153 38.1797 4.81188 37.6571 5.20582 37.3042C5.6132 36.9397 6.14741 36.9814 6.56921 37.4283C6.78923 37.661 7.00446 37.9024 7.18989 38.1642C7.3859 38.4405 7.52714 38.4026 7.74524 38.1806C8.83577 37.0706 9.93878 35.9741 11.0418 34.8757C11.2003 34.7177 11.3627 34.5577 11.5472 34.4336C11.943 34.168 12.4148 34.2242 12.7271 34.549C13.047 34.8815 13.0787 35.3953 12.8001 35.7899C12.7443 35.8685 12.679 35.9402 12.6108 36.0081C11.2003 37.4099 9.78889 38.8108 8.37746 40.2126C8.09306 40.4957 7.75965 40.6634 7.35419 40.6596L7.35515 40.6586Z" fill="white"/>
<path d="M6.54428 21.7239C6.11191 21.7345 5.77563 21.5629 5.51236 21.2575C5.08288 20.7592 4.65916 20.2561 4.24985 19.7413C3.88859 19.2856 3.92606 18.7495 4.31711 18.3986C4.70528 18.0505 5.24622 18.0786 5.64592 18.4878C5.86882 18.7166 6.07828 18.9628 6.26948 19.2197C6.47702 19.4999 6.63844 19.4747 6.8748 19.2362C8.01432 18.0864 9.16921 16.9521 10.3183 15.8111C10.4778 15.653 10.6306 15.4843 10.8506 15.4116C11.2571 15.2778 11.6154 15.368 11.8854 15.7005C12.1708 16.0515 12.1939 16.4461 11.9373 16.8174C11.7845 17.0394 11.577 17.2245 11.3848 17.4175C10.1512 18.6555 8.9146 19.8896 7.67899 21.1257C7.35616 21.4485 7.01603 21.7384 6.54331 21.7219L6.54428 21.7239Z" fill="white"/>
<path d="M12.1034 25.2343C12.1053 25.594 11.9775 25.8296 11.7777 26.0293C10.3499 27.4592 8.92981 28.897 7.48763 30.3124C6.83235 30.9561 6.03584 30.8853 5.43918 30.1805C5.04524 29.7152 4.64843 29.2518 4.27083 28.7729C3.8865 28.2862 3.91917 27.7501 4.32752 27.3933C4.73298 27.0395 5.26527 27.0947 5.69091 27.5349C5.74664 27.5921 5.79948 27.6531 5.85136 27.7142C6.32793 28.2662 6.8189 28.2891 7.32429 27.783C8.35909 26.7535 9.39676 25.7287 10.4335 24.7021C10.7438 24.3947 11.0984 24.2551 11.5211 24.4345C11.8968 24.5935 12.0822 24.8931 12.1014 25.2333L12.1034 25.2343Z" fill="white"/>
<path d="M28.5371 37.8365C28.5361 35.8393 30.1369 34.1922 32.1065 34.1641C34.0944 34.136 35.7855 35.8335 35.7759 37.8481C35.7663 39.821 34.1233 41.4817 32.1651 41.4943C30.1801 41.5078 28.5381 39.852 28.5371 37.8355V37.8365ZM32.1488 36.1069C31.1745 36.103 30.4145 36.8631 30.4184 37.8384C30.4222 38.7933 31.1688 39.5485 32.1161 39.5563C33.101 39.564 33.8658 38.8234 33.8802 37.8481C33.8946 36.8854 33.124 36.1108 32.1488 36.1069Z" fill="white"/>
<path d="M17.0017 4.07274C16.994 4.61661 16.5886 5.00634 16.0515 4.98792C15.5595 4.97047 15.1406 4.54293 15.1396 4.0582C15.1396 3.5628 15.597 3.10424 16.0918 3.10327C16.6058 3.10327 17.0094 3.53275 17.0017 4.07274Z" fill="white"/>
</g>
<defs>
<clipPath id="clip0_113_14162">
<rect width="42" height="49.6" fill="white"/>
</clipPath>
</defs>
</svg>
