<svg width="83" height="83" viewBox="0 0 83 83" fill="none" xmlns="http://www.w3.org/2000/svg">
<path d="M0.119141 60.2547C0.883635 58.352 2.4709 57.3818 4.28272 56.787C9.68218 55.0112 15.1125 55.0283 20.5291 56.739C21.1354 56.9498 21.7212 57.2154 22.2792 57.5327C24.0104 58.4531 24.8744 59.809 24.8384 61.8711C24.7509 66.842 24.7801 71.8284 24.8264 76.8079C24.8418 78.486 24.1561 79.6756 22.7917 80.5532C20.7828 81.8439 18.5219 82.365 16.2027 82.6581C12.1711 83.1724 8.18233 83.001 4.32557 81.6091C3.34378 81.2636 2.42538 80.7592 1.60699 80.1161C0.977911 79.6019 0.605949 78.7774 0.119141 78.09L0.119141 60.2547ZM11.674 58.2132C10.8478 58.3057 9.22451 58.3469 7.67324 58.7017C6.22964 59.0633 4.82957 59.5805 3.49766 60.2444C2.6286 60.6592 2.66974 61.194 3.49766 61.7202C4.10216 62.1104 4.75205 62.4253 5.43289 62.6579C9.41649 63.9674 13.4892 64.0292 17.5465 63.1721C18.8801 62.8927 20.1743 62.3065 21.4084 61.7031C22.2655 61.2814 22.2312 60.7501 21.4084 60.217C20.8703 59.8668 20.2955 59.5766 19.6943 59.3513C17.3665 58.4806 14.9205 58.2629 11.674 58.2132ZM2.90457 64.5554C2.73316 66.8626 2.94743 67.202 5.00265 67.9836C5.05236 68.0025 5.10035 68.0265 5.15006 68.0453C7.12472 68.7944 9.1868 69.0858 11.2797 69.1612C14.4337 69.2761 17.5448 69.0429 20.4794 67.7488C22.0889 67.0374 22.3649 66.4135 21.9295 64.5862C18.923 65.9232 15.769 66.4718 12.5019 66.4718C9.19022 66.4838 6.01055 65.9232 2.90457 64.5537V64.5554ZM21.9912 75.5943C15.5873 78.1209 9.23993 78.1072 2.896 75.5737C2.74516 77.8466 2.91314 78.1174 4.92723 78.9334C5.16852 79.0486 5.42057 79.1399 5.67972 79.2059C7.35612 79.5196 9.02738 79.9481 10.7192 80.087C13.9452 80.3527 17.142 80.087 20.1828 78.8545C22.0204 78.1209 22.2398 77.6718 21.9912 75.5926V75.5943ZM2.91657 70.0954C2.78459 72.3032 2.57375 72.3426 4.81067 73.4088C4.85866 73.4311 4.91351 73.4379 4.96322 73.4585C6.89846 74.2435 8.93311 74.5435 10.9986 74.6378C14.3411 74.7904 17.6408 74.5692 20.7296 73.1122C22.1506 72.4403 22.4317 71.6467 21.9141 70.1365C15.5787 72.6289 9.24622 72.6151 2.91657 70.0954Z" fill="#C94C4C"/>
<path d="M82.3863 0.642822V15.6876H79.6814V5.34635C79.3043 5.68917 79.0746 5.89658 78.8604 6.11084C70.3778 14.5911 61.9004 23.0748 53.4281 31.562C53.2431 31.7653 53.016 31.9257 52.7625 32.032C52.5091 32.1383 52.2355 32.1879 51.9608 32.1774C42.884 32.1591 33.8084 32.1619 24.7338 32.1859C24.2442 32.2027 23.7736 32.3804 23.3951 32.6916C16.5867 38.611 9.79193 44.5464 3.0109 50.4978C2.83092 50.6555 2.64579 50.8063 2.3921 51.012L0.592285 48.9808C1.92586 47.8084 3.22173 46.6668 4.52275 45.5286C10.4456 40.3451 16.3655 35.1593 22.2827 29.9713C22.6915 29.5937 23.2332 29.3934 23.7894 29.4142C32.8125 29.4313 41.8338 29.4142 50.8569 29.4382C51.1185 29.4487 51.3792 29.4017 51.6206 29.3004C51.862 29.1991 52.0782 29.046 52.2539 28.852C60.4977 20.5854 68.7488 12.3279 77.0074 4.07962C77.1891 3.89792 77.3503 3.7008 77.6262 3.40426H67.2833V0.642822H82.3863Z" fill="#C94C4C"/>
<path d="M82.3872 55.5171C82.3872 62.6375 82.3632 69.7579 82.4061 76.8783C82.4146 78.5033 81.741 79.6381 80.4537 80.502C78.7396 81.6453 76.8198 82.1801 74.8297 82.5023C70.4621 83.2103 66.1391 83.0851 61.9173 81.6247C61.2886 81.3996 60.6806 81.1203 60.1003 80.7899C58.4754 79.8849 57.6646 78.5804 57.6714 76.6195C57.7171 62.5375 57.7171 48.4566 57.6714 34.3769C57.6714 32.38 58.4976 31.0755 60.15 30.1516C62.3698 28.9123 64.8021 28.4221 67.2927 28.2061C70.8924 27.8941 74.4594 28.0741 77.9202 29.25C78.5513 29.4692 79.165 29.7356 79.7561 30.0471C81.5439 30.9727 82.4524 32.3303 82.4249 34.4763C82.3324 41.4888 82.3872 48.5029 82.3872 55.5171ZM69.7131 30.8235C67.6561 30.8115 65.3181 31.0481 63.076 31.84C62.3247 32.113 61.6088 32.4749 60.9437 32.9182C60.306 33.3313 60.3146 33.7375 60.9231 34.1764C61.3939 34.5293 61.9098 34.8176 62.4572 35.0334C66.6722 36.5915 70.9901 36.6498 75.3268 35.7191C76.5592 35.4568 77.7643 34.934 78.8956 34.3598C79.8966 33.8455 79.864 33.3313 78.923 32.7416C78.4024 32.4168 77.8499 32.1462 77.274 31.9343C74.936 31.0601 72.4968 30.8115 69.7131 30.8235ZM79.6035 59.1338C73.2116 61.6399 66.8625 61.657 60.5186 59.1338C60.2357 61.1599 60.4209 61.6776 62.2327 62.3204C63.784 62.8911 65.3936 63.2889 67.0322 63.5065C70.5941 63.9402 74.1423 63.7859 77.5483 62.4866C79.5915 61.7119 79.7561 61.4067 79.6104 59.1338H79.6035ZM60.5494 64.631C60.1895 66.5028 60.4346 67.017 62.0407 67.7661C62.3307 67.902 62.6283 68.021 62.932 68.1226C66.6757 69.3705 70.5084 69.4939 74.348 68.8083C75.8513 68.5392 77.2963 67.9101 78.7413 67.3736C79.4269 67.1199 79.7698 66.5594 79.6583 65.7726C79.6332 65.3787 79.6332 64.9837 79.6583 64.5899C73.2567 67.137 66.8871 67.1507 60.5494 64.631ZM79.5761 53.6607C73.1824 56.1821 66.8385 56.153 60.4946 53.6607C60.2975 55.829 60.4551 56.2593 62.411 56.9312C63.9981 57.4896 65.6422 57.8702 67.3133 58.0659C70.8204 58.443 74.3155 58.2871 77.658 56.9723C79.5709 56.2181 79.7749 55.8565 79.6275 53.7978C79.6159 53.7492 79.6005 53.7016 79.5812 53.6555L79.5761 53.6607ZM60.5494 48.1841C60.2066 50.1142 60.39 50.7004 62.0921 51.2901C63.8446 51.9229 65.6618 52.3598 67.5104 52.5928C71.0175 52.9802 74.5126 52.7745 77.8397 51.41C79.6121 50.6815 79.8675 50.1622 79.5675 48.1858C73.2476 50.6644 66.9242 50.685 60.546 48.1789L60.5494 48.1841ZM60.5494 75.5996C60.1963 77.528 60.4311 77.9994 62.1315 78.7724C64.0359 79.6295 66.0654 79.9723 68.1309 80.1009C71.3878 80.3168 74.624 80.1523 77.6786 78.8821C79.9892 77.9205 79.7235 77.7611 79.5949 75.5962C73.2579 78.0953 66.9276 78.1211 60.546 75.5945L60.5494 75.5996ZM60.5494 37.2035C60.2289 39.1764 60.462 39.6255 62.159 40.3883C62.4422 40.5388 62.7411 40.6577 63.0503 40.7431C64.6959 41.0859 66.3346 41.523 67.9972 41.6739C71.3552 41.9807 74.6823 41.7407 77.8517 40.4363C79.6429 39.6975 79.8743 39.2073 79.5829 37.2086C73.2459 39.7095 66.9174 39.7249 60.5374 37.2L60.5494 37.2035ZM60.5271 70.1024C60.2752 72.1817 60.5083 72.5999 62.303 73.3695C62.3767 73.4004 62.4538 73.421 62.5292 73.4518C64.485 74.2455 66.5437 74.5437 68.6315 74.6517C71.698 74.8025 74.7251 74.578 77.6168 73.4518C79.5881 72.6788 79.7663 72.3479 79.6412 70.2327C79.6334 70.1932 79.6231 70.1543 79.6104 70.1162C73.2613 72.6188 66.9156 72.6359 60.5151 70.099L60.5271 70.1024ZM79.6549 42.6081C76.489 43.9794 73.323 44.5313 70.0165 44.5364C66.76 44.55 63.5337 43.9124 60.5271 42.6612C60.2735 44.7524 60.4929 45.157 62.2704 45.918C62.7353 46.1217 63.2135 46.2935 63.7017 46.4323C67.2986 47.4247 71.0789 47.5545 74.7354 46.8111C76.0793 46.5471 77.3717 45.9866 78.659 45.4929C79.3944 45.2101 79.7903 44.6359 79.6635 43.7788C79.6352 43.3892 79.6323 42.9981 79.6549 42.6081Z" fill="#C94C4C"/>
<path d="M28.8999 63.6279C28.8999 59.238 28.9205 54.8465 28.8879 50.4549C28.8759 48.9722 29.4896 47.8837 30.6603 47.0575C32.4087 45.8251 34.4125 45.2697 36.4883 44.9218C40.5285 44.2447 44.5447 44.3355 48.4871 45.5114C49.6546 45.8859 50.7711 46.4041 51.8108 47.0541C53.0621 47.8066 53.626 48.9859 53.6226 50.4978C53.5952 59.3083 53.5952 68.1177 53.6226 76.926C53.6226 78.4772 52.9781 79.5948 51.7525 80.4365C50.0384 81.6141 48.0826 82.1609 46.0651 82.4934C41.6958 83.2048 37.3728 83.0865 33.1509 81.6261C32.4968 81.3956 31.8656 81.1047 31.2654 80.757C29.6833 79.8537 28.8468 78.5715 28.8845 76.6431C28.9565 72.3047 28.8999 67.9663 28.8999 63.6279ZM41.281 52.829C42.7414 52.6798 44.231 52.6575 45.6554 52.3439C47.1583 52 48.6218 51.5025 50.023 50.8594C51.1251 50.3589 51.096 49.7761 50.0624 49.159C49.3983 48.7617 48.6901 48.443 47.9523 48.2094C44.6286 47.1638 41.2244 47.0558 37.7928 47.4912C35.9552 47.7226 34.1537 48.1203 32.5373 49.0802C31.4077 49.7487 31.4094 50.2184 32.4996 50.9074C32.7262 51.0489 32.9622 51.1749 33.2058 51.2845C35.7718 52.4433 38.4973 52.7158 41.281 52.8255V52.829ZM31.6922 59.1266C31.4985 61.3104 31.7111 61.6618 33.6515 62.4623C33.8486 62.5428 34.0543 62.6063 34.2548 62.6765C36.4832 63.4685 38.7921 63.705 41.1284 63.705C43.9259 63.705 46.6924 63.441 49.2842 62.2634C50.8972 61.5298 51.1508 60.9556 50.7446 59.154C44.4195 61.6652 38.0893 61.6344 31.6922 59.1266ZM31.7025 53.5917C31.4883 55.8047 31.6631 56.1406 33.588 56.9377C36.1301 57.9884 38.8127 58.237 41.5312 58.2096C44.2498 58.1821 46.8741 57.8924 49.351 56.7406C50.9331 56.0069 51.168 55.4464 50.7223 53.6329C47.7089 54.9356 44.5669 55.491 41.2947 55.4961C37.9865 55.4944 34.8188 54.9442 31.7025 53.5917ZM50.856 75.565C44.3835 78.107 38.0362 78.107 31.6888 75.5787C31.5774 77.747 31.3134 77.8259 33.6172 78.8955C33.9098 79.0257 34.2111 79.1356 34.5188 79.2246C38.2281 80.3456 41.9992 80.4639 45.7771 79.7388C47.1741 79.4714 48.5197 78.8989 49.8601 78.3898C50.5903 78.1104 50.9914 77.5328 50.8646 76.6757C50.8366 76.3061 50.8337 75.935 50.856 75.565ZM31.6768 64.5946C31.5054 66.8401 31.7231 67.1778 33.7166 67.9611C33.8609 68.033 34.0119 68.0904 34.1674 68.1326C36.1592 68.4857 38.139 68.9896 40.1462 69.1405C43.1768 69.365 46.1885 69.053 49.0322 67.8532C50.8577 67.0835 51.0634 66.6533 50.7772 64.6272C44.4401 67.1367 38.091 67.1504 31.6837 64.6015L31.6768 64.5946ZM31.6768 70.0798C31.5277 72.3476 31.7111 72.6355 33.72 73.4446C35.681 74.2331 37.7379 74.5382 39.8274 74.6445C42.9762 74.7936 46.0874 74.5725 49.0373 73.3366C50.8594 72.5755 51.0651 72.1367 50.7806 70.1072C44.4384 72.6355 38.0876 72.6355 31.6802 70.0849L31.6768 70.0798Z" fill="#C94C4C"/>
</svg>
