<svg width="96" height="107" viewBox="0 0 96 107" fill="none" xmlns="http://www.w3.org/2000/svg">
<path d="M48.4833 0.909668C49.2256 1.47875 49.4339 2.23753 49.4215 3.15301C49.3823 5.72831 49.4215 8.30774 49.403 10.881C49.403 11.2233 49.4834 11.6728 49.304 11.8831C48.9163 12.3387 48.4318 12.881 47.8998 13.0027C47.7286 13.0453 47.55 13.0493 47.3769 13.0145C47.2039 12.9797 47.0408 12.9069 46.8993 12.8013C46.7579 12.6958 46.6416 12.5601 46.559 12.4042C46.4763 12.2482 46.4294 12.0759 46.4215 11.8996C46.3534 8.60053 46.3699 5.31387 46.438 2.02103C46.438 1.64576 46.9637 1.28081 47.2442 0.909668L48.4833 0.909668Z" fill="#00A3E8"/>
<path d="M35.3708 82.1853H47.9896C48.2308 82.1853 48.4721 82.175 48.7113 82.1853C49.7649 82.2471 50.3855 82.8368 50.3608 83.7606C50.336 84.6843 49.7422 85.2534 48.6473 85.2575C44.6617 85.2699 40.6761 85.2575 36.6884 85.2575H35.5213C35.5213 88.171 35.4162 90.9834 35.5626 93.7834C35.6492 95.4742 37.2121 96.7319 38.9956 96.7422C44.9064 96.778 50.8171 96.778 56.7279 96.7422C57.6214 96.7525 58.4837 96.4134 59.1308 95.7971C59.7778 95.1809 60.1586 94.3362 60.1919 93.4432C60.2661 90.7628 60.2104 88.0823 60.2104 85.2513H56.2928C55.8805 85.2513 55.4681 85.2678 55.0557 85.2513C54.1402 85.1998 53.5278 84.6204 53.4887 83.7956C53.4797 83.5883 53.513 83.3814 53.5863 83.1873C53.6596 82.9932 53.7716 82.816 53.9154 82.6665C54.0592 82.5169 54.2318 82.3981 54.4229 82.3171C54.6139 82.2362 54.8194 82.1948 55.0268 82.1956C56.5382 82.1461 58.0516 82.1667 59.563 82.1832C60.0702 82.1832 60.3403 82.1007 60.462 81.4987C61.0847 78.5131 62.7136 76.1687 65.1672 74.3666C72.1777 69.2448 76.3777 62.4179 77.5819 53.8054C79.5407 39.8154 71.1179 26.0873 57.7403 21.578C48.7896 18.5635 40.2142 19.5573 32.1068 24.411C31.6594 24.6791 31.0367 24.9884 30.6099 24.8708C30.3356 24.7732 30.0835 24.6218 29.8682 24.4257C29.653 24.2296 29.479 23.9926 29.3563 23.7285C29.0614 23.0254 29.5006 22.4213 30.1439 22.011C32.8903 20.2426 35.8876 18.8982 39.0348 18.0233C57.7032 12.9036 76.7922 24.5554 80.3056 43.5908C82.7098 56.6096 78.4211 67.4592 68.2188 75.9336C67.6642 76.3934 67.0621 76.7955 66.5033 77.2512C64.4414 78.9357 63.3507 81.111 63.3301 83.7812C63.3053 86.8039 63.3301 89.8287 63.3198 92.8535C63.3198 96.1525 61.6806 98.4371 58.5774 99.5794C58.2188 99.7299 57.9216 99.9974 57.7341 100.338C55.6165 104.293 52.3319 106.454 47.8515 106.448C43.371 106.441 40.0884 104.274 37.9709 100.318C37.7779 99.9795 37.4763 99.7165 37.1152 99.5712C34.078 98.4619 32.4037 96.169 32.4037 92.9339C32.4037 90.0473 32.3708 87.1606 32.4037 84.274C32.445 81.1543 31.2532 78.6739 28.7191 76.8512C24.1094 73.5677 20.4106 69.1657 17.9705 64.0592C11.9065 51.5002 14.6137 36.1535 24.6222 26.4399C25.4923 25.5946 26.3768 25.508 27.0573 26.2028C27.7377 26.8977 27.6263 27.8008 26.7789 28.6462C22.5891 32.8297 19.6571 37.7515 18.5602 43.5908C16.2529 55.8302 20.0324 65.9499 29.7625 73.713C32.5604 75.9439 34.7749 78.377 35.3708 82.1853ZM54.4351 99.8557H41.2884C43.0328 102.208 45.1421 103.361 47.8082 103.371C50.5134 103.386 52.6639 102.243 54.4351 99.8557Z" fill="#00A3E8"/>
<path d="M70.5029 52.1583C70.5029 53.1563 70.5194 54.1522 70.5029 55.148C70.4823 56.0924 70.0287 56.7007 69.0596 56.8491C67.905 57.0244 66.7462 57.1687 65.6039 57.3996C65.2748 57.4895 64.9942 57.7049 64.8224 57.9996C64.4824 58.634 64.2061 59.3005 63.9977 59.9894C63.9009 60.3185 63.9372 60.6723 64.0987 60.975C64.7173 61.8863 65.408 62.7379 66.0554 63.6266C66.7709 64.6121 66.7441 65.2431 65.9173 66.0864C64.5688 67.461 63.2073 68.8205 61.8327 70.1648C60.9687 71.0102 60.3584 71.0411 59.3749 70.3401C59.0506 70.1455 58.7497 69.9145 58.478 69.6514C57.0594 68.039 55.4676 67.9153 53.7356 69.0823C53.4179 69.2865 53.1821 69.596 53.0696 69.9566C52.8531 71.0329 52.7583 72.1298 52.5933 73.2164C52.4346 74.2639 51.9212 74.7257 50.8655 74.736C48.8723 74.7525 46.8791 74.7525 44.886 74.736C43.8179 74.736 43.3107 74.2721 43.1354 73.2412C43.0408 72.8396 42.9821 72.4304 42.9602 72.0185C42.9911 70.1298 42.3952 68.7751 40.3189 68.3339C39.7003 68.1998 39.2776 68.0802 38.756 68.5215C37.9704 69.1854 37.1168 69.7586 36.2941 70.3772C35.4714 70.9958 34.7167 70.969 33.9889 70.2432L29.7579 66.0204C29.0362 65.2988 28.9888 64.5317 29.597 63.7173L30.3373 62.7276C32.0363 60.4595 32.0466 60.4595 30.8878 57.9151C30.8097 57.7802 30.7045 57.663 30.5789 57.5707C30.4533 57.4785 30.3099 57.4132 30.1579 57.379C29.0465 57.1728 27.9187 57.0532 26.8032 56.8594C25.6877 56.6656 25.2361 56.1728 25.2238 55.0635C25.2011 53.1068 25.2073 51.1459 25.2238 49.1892C25.2238 48.1933 25.7083 47.5809 26.7372 47.4407C27.8919 47.2819 29.0506 47.1252 30.195 46.9046C30.4934 46.8102 30.7471 46.61 30.9084 46.3417C32.028 44.5891 31.993 42.9664 30.329 41.5231C29.9991 41.2365 29.7785 40.8241 29.5228 40.4571C29.0238 39.7416 29.0341 39.0137 29.6465 38.3952C31.1105 36.8982 32.5923 35.4171 34.092 33.9518C34.7105 33.3332 35.4384 33.2982 36.1539 33.8116C37.0714 34.4755 37.9848 35.1497 38.8735 35.8508C39.2859 36.1828 39.6302 36.1477 40.1581 36.024C42.2076 35.5436 43.1004 34.3188 42.9725 32.2528C42.9499 31.8858 43.0756 31.5084 43.1334 31.1352C43.3045 30.0259 43.8035 29.5641 44.9148 29.5558C46.8723 29.5393 48.8304 29.5393 50.7892 29.5558C51.95 29.5558 52.4387 30.0259 52.614 31.2053C52.7603 32.226 52.8428 33.2672 53.0717 34.259C53.2118 34.6727 53.4871 35.0271 53.8532 35.2652C55.6223 36.5023 57.1728 36.09 58.5708 34.5807C58.8942 34.2718 59.2526 34.002 59.6388 33.7765C60.3296 33.3208 61.0265 33.3641 61.6162 33.9312C63.1172 35.3951 64.6004 36.8749 66.0657 38.3704C66.7152 39.0323 66.7132 39.7828 66.1771 40.5169C65.509 41.4323 64.7791 42.3066 64.1626 43.255C63.9729 43.5478 63.9791 44.0386 64.041 44.4138C64.4059 46.6262 65.8967 47.3294 67.9586 47.3005C68.3349 47.3245 68.7086 47.379 69.0761 47.4634C70.0617 47.6056 70.4968 48.2283 70.5194 49.1686C70.5215 50.1665 70.5029 51.1624 70.5029 52.1583ZM62.8863 64.5709C62.1667 63.6121 61.3626 62.7008 60.7626 61.6719C60.4692 61.1201 60.3956 60.4778 60.5564 59.8739C61.0395 58.413 61.6302 56.9898 62.3234 55.6161C62.6232 55.1067 63.1028 54.7279 63.6678 54.5542C64.6492 54.2779 65.7029 54.2656 66.7091 54.0573C66.975 54.0037 67.3565 53.6449 67.375 53.4078C67.4513 52.4222 67.406 51.4284 67.406 50.3541C66.1895 50.1706 65.0472 49.9562 63.9008 49.8366C62.9461 49.7356 62.4574 49.2387 62.1585 48.3582C61.7367 47.1291 61.2388 45.9275 60.6677 44.7602C60.2265 43.8736 60.2656 43.1561 60.8842 42.3932C61.5935 41.5189 62.2409 40.5931 62.8183 39.8199C61.9358 38.8983 61.1193 38.0426 60.276 37.158C59.41 37.8034 58.5048 38.4261 57.6573 39.121C56.8594 39.7746 56.1192 39.7993 55.2016 39.3271C54.0773 38.7452 52.9045 38.2623 51.6964 37.8838C50.7314 37.5848 50.2675 37.0364 50.1479 36.0817C50.0098 34.9662 49.8386 33.8549 49.6799 32.7188H46.0241C45.8613 33.8961 45.6984 35.0157 45.552 36.1374C45.4324 37.0508 44.9643 37.5807 44.0571 37.8776C42.8229 38.2851 41.6197 38.7813 40.457 39.3622C39.5725 39.8055 38.857 39.7746 38.09 39.156C37.2157 38.4488 36.2899 37.8034 35.1415 36.9457C34.7999 37.4287 34.4338 37.8939 34.0445 38.3395C33.6322 38.7766 33.1291 39.1416 32.6693 39.5354C33.4198 40.5354 33.9683 41.3705 34.6239 42.1128C35.4734 43.0777 35.5435 43.9911 34.8672 45.0984C34.3724 45.9087 33.9167 46.8139 33.7435 47.7335C33.4445 49.3191 32.5208 49.8325 31.0383 49.9913C28.1517 50.2964 28.1785 50.3521 28.2857 53.2779C28.3063 53.8614 28.5249 54.0511 29.0589 54.1027C29.9785 54.1996 30.8898 54.3893 31.8095 54.4738C32.7641 54.5625 33.2528 55.0718 33.5518 55.9522C33.9746 57.1812 34.4732 58.3828 35.0446 59.5502C35.4817 60.4347 35.4404 61.1605 34.8384 61.9234C34.1332 62.8018 33.4796 63.7214 32.9352 64.4451L35.4549 67.1524C36.3436 66.4864 37.2673 65.8307 38.1518 65.1256C38.8879 64.54 39.5807 64.507 40.4199 64.94C41.5436 65.5277 42.7165 66.0162 43.9251 66.3998C45.0262 66.7276 45.4901 67.3689 45.5973 68.4473C45.7046 69.5256 45.8901 70.538 46.0427 71.5937H49.6984C49.8613 70.4102 50.0242 69.2906 50.1706 68.1689C50.2902 67.2534 50.7665 66.74 51.6758 66.4452C52.9101 66.0374 54.1127 65.5391 55.2738 64.9544C56.115 64.542 56.812 64.5214 57.5542 65.107C58.4656 65.8225 59.41 66.4988 60.3028 67.1689L62.8863 64.5709Z" fill="#00A3E8"/>
<path d="M6.05513 50.2138C4.64891 50.2138 3.2427 50.2138 1.83649 50.2138C0.721008 50.2138 0.0302734 49.5952 0.0302734 48.688C0.0302734 47.7808 0.714822 47.1416 1.83031 47.1333C4.67709 47.1141 7.52388 47.1141 10.3707 47.1333C11.4862 47.1333 12.1748 47.7663 12.1789 48.6839C12.1831 49.6014 11.4923 50.2035 10.3769 50.2138C8.93559 50.2262 7.49639 50.2138 6.05513 50.2138Z" fill="#00A3E8"/>
<path d="M89.6061 50.2136C88.1628 50.2136 86.7194 50.2259 85.2761 50.2136C84.2142 50.1991 83.5565 49.6239 83.5297 48.7331C83.5008 47.8053 84.1792 47.1434 85.2802 47.1351C88.1669 47.1132 91.048 47.1132 93.9237 47.1351C95.0227 47.1455 95.7072 47.8176 95.6742 48.7393C95.6433 49.6156 94.9711 50.2012 93.9196 50.2136C92.4886 50.2259 91.0474 50.2136 89.6061 50.2136Z" fill="#00A3E8"/>
<path d="M82.3281 15.9261C81.9797 16.489 81.7982 16.9426 81.4827 17.2643C79.4882 19.2959 77.4779 21.309 75.4517 23.3036C74.6269 24.1077 73.763 24.1531 73.0908 23.485C72.4187 22.817 72.4599 21.9489 73.2661 21.1345C75.2888 19.0891 77.3507 17.0663 79.3734 15.0251C79.9198 14.4787 80.5858 14.256 81.2291 14.6416C81.6807 14.9055 81.9405 15.4539 82.3281 15.9261Z" fill="#00A3E8"/>
<path d="M15.0553 14.2605C15.6141 14.6048 16.0677 14.7842 16.3894 15.0997C18.4224 17.0901 20.4376 19.0956 22.4349 21.1163C23.2472 21.9411 23.2967 22.7926 22.641 23.4689C21.9854 24.1452 21.0802 24.0875 20.2781 23.304C18.2203 21.2854 16.1935 19.24 14.1563 17.209C13.6141 16.6688 13.3728 16.0049 13.7708 15.3533C14.0388 14.9182 14.5832 14.6481 15.0553 14.2605Z" fill="#00A3E8"/>
<path d="M64.4454 10.716C63.7629 12.316 63.2556 13.7346 62.5567 15.0459C62.4704 15.1986 62.3516 15.3304 62.2088 15.4321C62.066 15.5338 61.9026 15.603 61.7301 15.6346C61.5577 15.6663 61.3804 15.6597 61.2107 15.6154C61.0411 15.571 60.8833 15.4899 60.7484 15.3779C60.3216 15.0377 59.8762 14.25 59.9875 13.7964C60.3009 12.5119 60.8494 11.2768 61.402 10.0665C61.4692 9.90499 61.5692 9.75918 61.6955 9.63819C61.8218 9.5172 61.9718 9.42365 62.136 9.36343C62.3002 9.3032 62.4751 9.2776 62.6497 9.28823C62.8243 9.29887 62.9948 9.3455 63.1505 9.42521C63.6556 9.67058 64 10.2541 64.4454 10.716Z" fill="#00A3E8"/>
<path d="M36.0347 14.2135C35.5913 14.6795 35.2511 15.3496 34.7851 15.4506C34.2656 15.564 33.3109 15.3352 33.1068 14.9537C32.4347 13.6903 31.9209 12.3489 31.5768 10.9598C31.4737 10.5475 32.0346 9.70827 32.4944 9.49177C32.9068 9.29795 33.913 9.51239 34.1027 9.85466C34.8346 11.1825 35.3563 12.6362 36.0347 14.2135Z" fill="#00A3E8"/>
<path d="M87.1954 34.2028C86.9892 34.4502 86.682 35.0378 86.2057 35.2914C85.223 35.775 84.2057 36.185 83.1624 36.5183C82.2386 36.842 81.3953 36.4812 81.0881 35.7121C80.7541 34.8729 81.1252 34.0626 82.0799 33.6502C83.0345 33.2378 84.0366 32.8254 85.0408 32.4935C86.1521 32.1223 87.1583 32.8027 87.1954 34.2028Z" fill="#00A3E8"/>
<path d="M14.7129 34.8093C14.7417 36.1392 13.8386 36.8918 12.7706 36.566C11.5943 36.2025 10.4467 35.7517 9.33752 35.2175C8.62204 34.8732 8.3375 34.1866 8.6406 33.3886C8.94369 32.5907 9.56845 32.1948 10.3437 32.4339C11.6134 32.8338 12.853 33.3237 14.0531 33.9C14.4118 34.067 14.585 34.6216 14.7129 34.8093Z" fill="#00A3E8"/>
<path d="M47.8015 62.1482C45.1617 62.1282 42.6358 61.0701 40.7699 59.2026C38.904 57.3352 37.848 54.8084 37.8302 52.1686C37.8075 46.6345 42.3931 42.0963 47.9623 42.1437C53.4284 42.189 57.9109 46.7231 57.88 52.1769C57.8631 54.8348 56.7924 57.3775 54.9029 59.2469C53.0134 61.1163 50.4594 62.1597 47.8015 62.1482ZM47.851 59.0553C48.7781 59.0874 49.7023 58.9324 50.5683 58.5997C51.4343 58.267 52.2245 57.7634 52.8917 57.1188C53.5589 56.4742 54.0895 55.7019 54.452 54.8479C54.8144 53.9939 55.0011 53.0757 55.0011 52.148C55.0011 51.2203 54.8144 50.302 54.452 49.448C54.0895 48.594 53.5589 47.8217 52.8917 47.1772C52.2245 46.5326 51.4343 46.0289 50.5683 45.6962C49.7023 45.3635 48.7781 45.2086 47.851 45.2406C44.0241 45.2406 40.8715 48.4015 40.9127 52.1995C40.9349 54.0252 41.6757 55.7685 42.9744 57.0518C44.2731 58.3351 46.0252 59.0549 47.851 59.0553Z" fill="#00A3E8"/>
</svg>
