<svg width="42" height="42" viewBox="0 0 42 42" fill="none" xmlns="http://www.w3.org/2000/svg">
<g clip-path="url(#clip0_113_14155)">
<path d="M19.2652 0C20.4127 0 21.561 0 22.7085 0C23.0182 0.0426821 23.3287 0.0886474 23.6383 0.128867C28.4731 0.759249 32.6303 2.79896 36.0079 6.29643C40.4566 10.902 42.4222 16.4433 41.9236 22.8374C41.6953 25.766 40.8377 28.5116 39.4216 31.0783C35.1322 38.8514 26.3367 43.3839 17.2725 41.6224C8.91223 39.998 3.45729 34.9394 0.80169 26.8643C0.356489 25.5116 0.173316 24.1014 0 22.6929C0 21.5462 0 20.3988 0 19.2521C0.0969256 18.5922 0.157709 17.9248 0.294884 17.2739C2.05433 8.91645 7.023 3.43591 15.1352 0.790439C16.4757 0.352948 17.8713 0.174012 19.2652 0ZM38.6684 20.9643C38.6659 11.2418 30.7435 3.31361 21.0205 3.30294C11.245 3.29309 3.30368 11.2172 3.30533 20.9791C3.30779 30.7204 11.2425 38.6421 20.9943 38.6404C30.7427 38.638 38.67 30.7089 38.6684 20.9643Z" fill="white"/>
<path d="M22.6557 15.6176C22.6557 17.0096 22.6656 18.4026 22.6492 19.7947C22.6451 20.132 22.7601 20.3479 23.0278 20.5465C24.8045 21.8647 26.5697 23.1977 28.3407 24.5225C28.8122 24.8746 29.1292 25.3015 29.1415 25.9212C29.1547 26.6057 28.859 27.1113 28.2758 27.4347C27.7024 27.7524 27.1102 27.7212 26.5673 27.3568C26.0802 27.0301 25.6202 26.6632 25.1495 26.3119C23.51 25.0839 21.8803 23.8437 20.2285 22.6322C19.5886 22.1627 19.302 21.5857 19.3077 20.787C19.3299 17.6753 19.3143 14.5628 19.3192 11.4511C19.3208 10.4752 19.9599 9.76518 20.8585 9.71183C21.8614 9.65191 22.6393 10.3512 22.6492 11.36C22.664 12.7792 22.6533 14.1992 22.6533 15.6184H22.6549L22.6557 15.6176Z" fill="white"/>
</g>
<defs>
<clipPath id="clip0_113_14155">
<rect width="42" height="42" fill="white"/>
</clipPath>
</defs>
</svg>
